<?xml version="1.0" standalone="no"?>
<!DOCTYPE svg PUBLIC "-//W3C//DTD SVG 20010904//EN"
 "http://www.w3.org/TR/2001/REC-SVG-20010904/DTD/svg10.dtd">
<svg version="1.0" xmlns="http://www.w3.org/2000/svg"
 width="300.000000pt" height="300.000000pt" viewBox="0 0 300.000000 300.000000"
 preserveAspectRatio="xMidYMid meet">
<metadata>
Created by potrace 1.14, written by Peter Selinger 2001-2017
</metadata>
<g transform="translate(0.000000,300.000000) scale(0.100000,-0.100000)"
fill="#000000" stroke="none">
<path d="M1473 1561 c-7 -11 -9 -21 -4 -23 5 -2 12 -13 15 -25 9 -28 -18 -32
-33 -5 -7 11 -10 13 -11 3 0 -9 -4 -10 -12 -4 -43 33 -245 44 -397 23 -56 -8
-69 -14 -108 -52 -37 -36 -43 -48 -43 -84 0 -23 8 -62 19 -86 20 -47 130 -164
201 -214 56 -39 211 -118 288 -145 31 -11 66 -24 77 -29 35 -15 149 -40 236
-51 117 -15 256 2 321 39 33 19 58 68 58 113 0 43 -60 148 -107 187 -87 72
-152 122 -158 122 -4 0 -30 15 -58 33 -66 43 -124 72 -162 81 -36 9 -55 23
-51 39 1 7 1 9 -1 5 -8 -14 -33 -8 -40 8 -4 11 2 23 17 34 15 11 21 23 17 34
-9 22 -50 20 -64 -3z"/>
<path d="M1385 1551 c-3 -5 -1 -12 5 -16 5 -3 10 1 10 9 0 18 -6 21 -15 7z"/>
<path d="M1420 1540 c0 -5 5 -10 11 -10 5 0 7 5 4 10 -3 6 -8 10 -11 10 -2 0
-4 -4 -4 -10z"/>
</g>
</svg>
